<svg xmlns="http://www.w3.org/2000/svg" xmlns:xlink="http://www.w3.org/1999/xlink" width="500" zoomAndPan="magnify" viewBox="0 0 375 374.999991" height="500" preserveAspectRatio="xMidYMid meet" version="1.0"><defs><g/></defs><rect x="-37.5" width="450" fill="#ffffff" y="-37.499999" height="449.999989" fill-opacity="1"/><rect x="-37.5" width="450" fill="#ffffff" y="-37.499999" height="449.999989" fill-opacity="1"/><g fill="#000000" fill-opacity="1"><g transform="translate(38.613504, 222.374985)"><g><path d="M 72.640625 -2.53125 L 63.546875 -2.53125 L 35.453125 -79.078125 L 34.1875 -79.078125 L 7.015625 -2.53125 L -2.078125 -2.53125 L -2.078125 0 L 17.84375 0 L 17.84375 -2.53125 L 9.78125 -2.53125 L 17.265625 -24.40625 L 43.625 -24.40625 L 51.5625 -2.53125 L 42.359375 -2.53125 L 42.359375 0 L 72.640625 0 Z M 18.421875 -27.171875 L 30.15625 -60.203125 L 30.5 -60.203125 L 42.703125 -27.171875 Z M 18.421875 -27.171875 "/></g></g></g><g fill="#000000" fill-opacity="1"><g transform="translate(101.688419, 222.374985)"><g><path d="M 91.390625 -2.53125 L 82.1875 -2.53125 L 82.1875 -74.828125 L 91.390625 -74.828125 L 91.390625 -77.359375 L 69.40625 -77.359375 L 48.578125 -17.03125 L 48.109375 -17.03125 L 25.546875 -77.359375 L 3 -77.359375 L 3 -74.828125 L 12.203125 -74.828125 L 12.203125 -2.53125 L 3 -2.53125 L 3 0 L 24.171875 0 L 24.171875 -2.53125 L 14.96875 -2.53125 L 14.96875 -74.015625 L 43.28125 1.609375 L 45 1.609375 L 70.671875 -72.984375 L 71.140625 -72.984375 L 71.140625 -2.53125 L 61.921875 -2.53125 L 61.921875 0 L 91.390625 0 Z M 91.390625 -2.53125 "/></g></g></g><g fill="#000000" fill-opacity="1"><g transform="translate(190.546104, 222.374985)"><g><path d="M 72.984375 -38.796875 C 72.984375 -61.703125 57.203125 -77.359375 35.453125 -77.359375 L 4.140625 -77.359375 L 4.140625 -74.828125 L 13.359375 -74.828125 L 13.359375 -2.53125 L 4.140625 -2.53125 L 4.140625 0 L 32.921875 0 C 60.546875 0 72.984375 -19.6875 72.984375 -38.796875 Z M 60.3125 -40.171875 C 60.3125 -17.953125 51.34375 -2.53125 34.53125 -2.53125 L 25.09375 -2.53125 L 25.09375 -74.828125 L 35.34375 -74.828125 C 48.46875 -74.828125 60.3125 -65.15625 60.3125 -40.171875 Z M 60.3125 -40.171875 "/></g></g></g><g fill="#000000" fill-opacity="1"><g transform="translate(261.102632, 222.374985)"><g><path d="M 76.203125 -77.359375 L 54.90625 -77.359375 L 54.90625 -74.828125 L 64.109375 -74.828125 L 43.859375 -16.109375 L 43.515625 -16.109375 L 18.765625 -74.828125 L 27.96875 -74.828125 L 27.96875 -77.359375 L -2.421875 -77.359375 L -2.421875 -74.828125 L 6.796875 -74.828125 L 38.796875 1.734375 L 40.859375 1.734375 L 67 -74.828125 L 76.203125 -74.828125 Z M 76.203125 -77.359375 "/></g></g></g></svg>